<svg width="26" height="26" viewBox="0 0 26 26" fill="none" xmlns="http://www.w3.org/2000/svg">
<g clip-path="url(#clip0_2_958)">
<path d="M8.80345 5.98608L8.60641 6.66452L9.58345 6.82702L9.17923 5.98608H8.80345Z" fill="#616161"/>
<path d="M20.7431 10.4183C17.9949 13.2884 16.9041 13.9851 9.63219 17.5012C6.00844 19.2522 2.26485 19.3741 1.05626 20.1581C0.968914 20.215 0.885632 20.2719 0.804382 20.3267V23.9342C0.84907 23.9423 0.875476 23.9464 0.875476 23.9464H10.2964L25.1794 18.068V5.19186C24.1089 6.60968 22.5875 8.49265 20.7431 10.4183Z" fill="url(#paint0_radial_2_958)"/>
<path d="M10.2761 23.8448L0.891726 23.8469C0.889695 23.8469 0.855164 23.8408 0.804382 23.8306V24.0358C0.838914 24.0419 0.867351 24.0459 0.875476 24.048H10.2964C10.3086 24.048 10.3208 24.0459 10.333 24.0398L25.1794 18.1756V17.9583L10.2761 23.8448Z" fill="#B3E5FC"/>
<path d="M21.5881 11.2206C15.3684 17.3205 9.75204 17.682 5.94751 19.9164C3.81469 21.1697 1.85657 22.36 0.804382 23.0039V25.1509H25.1794V8.70798C23.9749 9.34985 22.6302 10.2009 21.5881 11.2206Z" fill="url(#paint1_radial_2_958)"/>
<path d="M8.48859 25.1509H8.64499C9.29702 25.1306 9.82718 24.8625 10.1562 24.5802C10.1562 24.5802 11.115 23.8103 11.8605 23.4731L18.917 20.5217C19.3598 20.3369 20.1114 20.2191 20.8101 20.0667C23.4955 19.4777 22.752 17.8466 22.3762 17.2981C22.0066 16.6177 21.0194 16.4409 20.2272 16.7213C19.1323 17.1092 18.1614 17.9745 17.7084 18.1655L11.2531 20.865C10.3614 21.125 9.17312 21.125 8.22655 21.3972C7.0789 21.7242 6.75187 22.3498 6.73765 23.2984C6.72343 24.2938 7.50546 25.1103 8.48859 25.1509Z" fill="#B3E5FC"/>
<path d="M21.6511 16.636C21.2428 15.8905 20.1764 15.7361 19.3822 16.0164C18.6733 16.2683 18.0091 16.7192 17.5236 17.0503C17.2514 17.2372 17.0137 17.3977 16.8594 17.4627L10.4122 20.1581C9.97749 20.2841 9.47781 20.347 8.94968 20.4141C8.41952 20.4811 7.87109 20.5502 7.38765 20.6903C6.29484 21.0011 5.84187 21.58 5.82562 22.687C5.81749 23.2091 6.01656 23.7006 6.38218 24.0724C6.74781 24.442 7.23531 24.6472 7.75531 24.6472C8.62062 24.6472 9.20155 24.2288 9.40874 24.05C9.4189 24.0419 10.3655 23.2842 11.0886 22.9572L18.1451 20.0058C18.4641 19.8717 18.9536 19.7742 19.4716 19.6706C19.6544 19.6341 19.8392 19.5975 20.02 19.5569C21.0722 19.3253 21.7262 18.911 21.9578 18.3219C22.2442 17.5988 21.7994 16.8533 21.6511 16.636Z" fill="url(#paint2_linear_2_958)"/>
<path d="M17.6008 13.4306H17.5987C17.5947 13.4103 17.5926 13.388 17.5865 13.3677C17.5393 13.1665 17.4469 12.9788 17.3164 12.8186C17.1858 12.6585 17.0205 12.5302 16.833 12.4434L16.835 12.4394L13.26 10.8428L13.2498 10.8652C13.2437 10.8631 13.2376 10.8591 13.2315 10.855C13.0548 10.7758 12.8659 10.7392 12.6811 10.7392C12.1611 10.7392 11.6655 11.0399 11.44 11.5436C11.4075 11.6147 11.3851 11.6878 11.3669 11.7589C10.9261 11.3811 10.2862 11.0886 9.75608 11.0886C9.5692 11.0886 9.39655 11.1252 9.2503 11.2064C8.51905 11.6127 8.73639 12.9878 9.14061 13.717C9.14467 13.7231 9.14874 13.7313 9.1528 13.7374L9.15077 13.7394L10.5259 16.2195C10.6519 16.447 10.6783 16.7152 10.599 16.9609L9.57936 20.15L9.77639 20.6517L12.3561 20.6314L13.6012 16.6136C13.6175 16.573 13.6337 16.5324 13.6459 16.4897C13.6581 16.447 13.6683 16.4044 13.6784 16.3617L13.6845 16.3414C13.778 15.8884 13.6195 15.4984 13.388 15.0861L12.5145 13.5139L14.7387 14.5072C14.842 14.5529 14.9332 14.622 15.0052 14.7091C15.0771 14.7962 15.1277 14.8989 15.1531 15.0089L15.8722 18.0883L18.5412 17.4647L17.6008 13.4306Z" fill="#7C7C7C"/>
<path d="M19.0755 7.81624C19.0669 7.80229 19.055 7.79071 19.0408 7.78255C19.0266 7.77439 19.0106 7.76991 18.9942 7.76952L16.4267 7.64358C16.1708 7.54202 13.4611 6.48577 12.9695 6.46952C12.9147 6.46139 12.8802 6.49796 12.868 6.54468L12.2484 8.80546C12.2362 8.85421 12.2586 8.90499 12.3053 8.9253C12.4069 8.97202 14.8261 10.0486 15.665 10.2314C15.7848 10.2578 15.9311 10.27 16.0956 10.27C17.1173 10.27 18.7931 9.82108 18.8744 9.79874C18.8927 9.79468 18.9089 9.78452 18.9231 9.7703C19.7356 8.8928 19.0836 7.82843 19.0755 7.81624Z" fill="url(#paint3_linear_2_958)"/>
<path d="M14.0034 8.72218C13.9222 8.25093 13.8409 7.76547 13.7881 7.29218C13.7719 6.85547 13.6073 6.50609 13.3108 6.28265C13.0284 6.06937 12.6425 5.96984 12.1631 5.98812L10.3573 6.05515C9.51843 6.06125 8.67343 6.84937 8.70593 7.74718L8.72827 11.5558C8.75671 12.2931 8.96796 12.8172 9.35796 13.1178C9.59968 13.3047 9.90639 13.3961 10.2761 13.3961C10.4691 13.3961 10.6803 13.3697 10.9058 13.3189C13.063 12.8273 14.2634 12.155 14.2837 11.4258C14.3081 10.4995 14.1537 9.59562 14.0034 8.72218Z" fill="url(#paint4_linear_2_958)"/>
<path d="M20.2008 7.84467C20.1886 7.84061 18.8561 7.42624 18.3666 8.51499C18.3645 8.52108 18.3605 8.52921 18.3605 8.5353L18.3503 8.58202C18.2162 9.17717 18.5839 9.53061 18.8216 9.64436C19.0531 9.75608 19.63 9.7378 19.7458 9.73171C19.8331 9.75202 19.9184 9.77639 19.9976 9.79874C20.1541 9.84342 20.3145 9.88811 20.4628 9.88811C20.672 9.88811 20.863 9.79874 20.995 9.48795L21.0011 9.46967L21.0112 9.42295C21.1412 8.85014 20.9056 8.12499 20.2008 7.84467ZM6.86765 12.6567L6.69499 12.4881C6.2928 12.0859 5.33202 12.61 5.1289 12.7278C4.87093 12.7197 4.40984 12.8334 4.29405 13.3189C4.20671 13.6845 4.27577 14.0055 4.48905 14.2451C4.72062 14.5031 5.10859 14.6514 5.53515 14.6514C5.6103 14.6514 5.68546 14.6473 5.76265 14.6372C7.08093 14.4726 6.95093 13.2437 6.89609 12.7176C6.8939 12.6947 6.88385 12.6731 6.86765 12.6567Z" fill="#26A69A"/>
<path d="M10.4853 8.27532C10.4853 8.24282 10.4853 8.21235 10.4833 8.17985C10.4386 7.60907 10.0222 7.12766 9.4575 7.03422C9.26657 7.00172 9.08375 7.01594 8.91313 7.06063C8.89688 7.06063 8.8786 7.05657 8.86032 7.05657C8.69985 7.05657 8.54547 7.08906 8.41141 7.16219C7.2536 7.59281 5.20407 8.38094 5.07203 9.52453C4.96235 10.4894 5.03953 12.8964 5.03953 12.8964C5.34828 13.13 5.65703 13.2092 5.93532 13.2092C6.52641 13.2092 6.97532 12.8517 6.97532 12.8517L7.01797 12.6628L7.02 12.6608C7.02 12.6608 7.02406 12.6445 7.02813 12.6181L7.58063 10.1867C7.58063 10.1867 9.23813 9.61391 9.68297 9.45547C10.0527 9.31938 10.528 8.79938 10.4853 8.27532Z" fill="url(#paint5_linear_2_958)"/>
<path d="M14.1558 2.06985C13.5119 1.3975 12.4719 0.928284 11.4217 0.928284C11.1333 0.928284 10.8428 0.962815 10.5625 1.04C9.07767 1.44422 8.66126 2.15922 8.50079 2.51266C8.42157 2.68531 8.3911 2.88438 8.27532 3.0286C8.11892 3.2236 7.85079 3.35969 7.6822 3.56078C7.6172 3.63797 7.55423 3.73953 7.59485 3.83094C7.63142 3.91422 7.73501 3.9386 7.82642 3.95281C8.84407 4.09906 11.6188 3.88375 12.1225 4.28797C12.4008 4.51141 12.2484 5.70578 12.2566 6.12016C12.2647 6.5061 12.2769 6.45938 12.6242 6.62797C12.74 6.68282 12.8436 6.70922 12.937 6.70922C13.388 6.70922 13.6317 6.14453 13.9811 5.71391C14.7977 4.70641 15.3156 3.27031 14.1558 2.06985Z" fill="url(#paint6_linear_2_958)"/>
<path d="M12.5044 19.6788L9.80078 20.0464C9.65656 20.0688 9.55093 20.1927 9.55093 20.3389V20.6944C9.55093 20.93 9.69312 21.1413 9.9125 21.2286C10.2862 21.3769 10.8692 21.5942 11.2653 21.6795C11.4034 21.71 11.5395 21.7222 11.6736 21.7222C12.2647 21.7222 12.803 21.4764 13.0406 21.3484C13.1219 21.3038 13.1787 21.2245 13.1889 21.1331C13.2641 20.4425 13.197 19.7722 12.5044 19.6788ZM18.3666 17.0869L15.73 17.5236L15.7686 18.2813C15.7787 18.4763 15.925 18.6347 16.118 18.6591C16.6461 18.722 17.6658 18.8399 18.1289 18.8642C18.1837 18.8663 18.2386 18.8683 18.2914 18.8683C18.98 18.8683 19.4431 18.6449 19.6442 18.5209C19.7234 18.4722 19.7702 18.3849 19.7681 18.2914C19.7539 17.6333 19.0552 17.1803 18.3666 17.0869Z" fill="#4568AD"/>
<path d="M12.3967 4.74702L12.1997 4.32858C12.1184 4.06452 11.0642 4.06046 11.0642 4.06046L11.1759 6.50405L11.1861 6.70921L11.1942 6.90827C11.1942 6.90827 11.9641 6.78233 12.2687 6.61374C12.3094 6.58936 12.3419 6.56702 12.3622 6.54264L12.3987 6.37811L12.5328 5.78092L14.0766 5.4478C14.1192 5.40311 14.1619 5.35639 14.2106 5.30764C14.235 5.27921 14.2634 5.25077 14.2919 5.22233C14.4544 5.0578 14.5559 4.92171 14.6351 4.7978C14.6595 4.76124 14.6819 4.72671 14.7022 4.69217L12.3967 4.74702Z" fill="#616161"/>
<path d="M16.1464 5.42954C14.9378 6.16485 15.0942 6.69095 13.9912 7.63751C13.0061 8.48251 11.8889 8.89891 10.4162 8.26923C8.00921 7.23735 8.36671 6.06126 8.36671 6.06126C8.36671 6.06126 8.94562 6.84938 11.31 6.74376C12.9898 6.6686 13.3595 6.16485 14.0441 5.48235C14.7286 4.79985 14.2553 4.32657 15.7259 3.58923C17.1986 2.85391 18.7748 3.06313 18.7748 3.06313L20.7187 4.6922C20.7187 4.6922 17.355 4.6922 16.1464 5.42954Z" fill="#039BE5"/>
<path d="M21.6226 15.2242C21.6247 15.2222 21.6267 15.2222 21.6287 15.2181C21.8786 14.9988 21.708 14.5681 21.3626 14.623C21.3525 14.623 21.3444 14.625 21.3362 14.627C21.1372 14.6758 21.0051 14.8464 20.9483 15.0353C20.9198 15.1328 20.8955 15.2303 20.8751 15.3299C20.865 15.3786 20.8528 15.4294 20.8487 15.4781C20.8467 15.5066 20.8609 15.5574 20.8934 15.5635C20.9401 15.5736 21.0255 15.535 21.0701 15.5188C21.2672 15.4558 21.4622 15.3644 21.6226 15.2242ZM24.0642 12.805C24.0662 12.803 24.0662 12.801 24.0703 12.7989C24.2937 12.5511 24.7223 12.7278 24.6614 13.0731C24.6614 13.0813 24.6573 13.0914 24.6553 13.0995C24.6045 13.2986 24.4319 13.4286 24.2409 13.4835C24.1434 13.5119 24.0439 13.5342 23.9444 13.5525C23.8956 13.5627 23.8448 13.5728 23.7961 13.5769C23.7676 13.5789 23.7169 13.5627 23.7108 13.5302C23.7006 13.4835 23.7412 13.3981 23.7575 13.3555C23.8286 13.1585 23.922 12.9635 24.0642 12.805ZM20.4141 12.6527C20.4161 12.6506 20.4161 12.6486 20.4161 12.6445C20.5542 12.3013 20.1683 11.958 19.8534 12.1875L19.8291 12.2058C19.6564 12.352 19.6076 12.5897 19.6462 12.807C19.6666 12.9188 19.6909 13.0285 19.7214 13.1361C19.7376 13.1889 19.7498 13.2458 19.7701 13.2966C19.7823 13.325 19.823 13.3677 19.8575 13.3595C19.9103 13.3474 19.9733 13.2661 20.0098 13.2275C20.1784 13.061 20.3267 12.872 20.4141 12.6527ZM23.1258 10.7656C23.1278 10.7636 23.1278 10.7616 23.1298 10.7595C23.3533 10.5239 23.1501 10.1217 22.8191 10.205C22.8109 10.207 22.8008 10.2091 22.7926 10.2131C22.6037 10.2761 22.49 10.4549 22.4514 10.6417C22.4311 10.7392 22.4169 10.8367 22.4047 10.9342C22.4006 10.983 22.3925 11.0317 22.3925 11.0805C22.3925 11.1069 22.4128 11.1556 22.4433 11.1597C22.49 11.1658 22.5672 11.1211 22.6098 11.1028C22.8008 11.0195 22.9836 10.9139 23.1258 10.7656ZM22.8698 12.6202L22.8759 12.6141C23.1542 12.3135 22.8901 11.8097 22.4758 11.9214C22.4656 11.9235 22.4534 11.9275 22.4433 11.9316C22.2076 12.0149 22.0655 12.2424 22.0208 12.48C21.9984 12.6019 21.9801 12.7258 21.97 12.8497C21.9639 12.9106 21.9558 12.9736 21.9558 13.0345C21.9578 13.067 21.9822 13.128 22.0208 13.132C22.0797 13.1402 22.1792 13.0813 22.23 13.0569C22.4656 12.9472 22.6931 12.8111 22.8698 12.6202Z" fill="white"/>
<path d="M9.31734 6.68078C9.26249 6.58734 9.1853 6.45937 9.08984 6.29484L8.81765 6.27453C8.78718 6.39031 8.64905 6.77015 8.54546 6.82906C8.48046 6.86562 8.34234 6.68078 8.2428 6.52843C8.16765 6.41062 8.15343 6.2664 8.20421 6.13437C8.22655 6.07547 8.25093 6.01453 8.26718 5.9739C8.31187 5.85609 8.3789 5.75047 8.41952 5.63265C8.46218 5.50875 8.38702 5.37062 8.35249 5.24672C8.31187 5.10859 8.27124 4.9725 8.22858 4.83234C8.21843 4.79578 8.10062 4.31234 8.07421 4.31234C8.07421 4.31234 7.96452 4.31031 7.94827 4.17625C7.93812 4.095 7.93405 3.94875 8.16358 3.94672L10.6295 4.00562C10.9586 4.01375 11.31 4.01984 11.5801 4.50328C11.7853 4.87297 11.6939 6.32531 11.5964 6.51625C11.5497 6.60969 11.4826 6.80062 11.1942 6.90422C10.9789 6.97937 10.1176 6.93265 9.68905 6.90218C9.53468 6.89812 9.39859 6.81484 9.31734 6.68078Z" fill="#E3F2FD"/>
<path d="M10.1217 6.37406C9.97801 6.35618 9.84148 6.30103 9.72568 6.21409C9.60988 6.12715 9.51882 6.01144 9.46155 5.87843C9.34577 5.61234 9.20765 5.30562 9.15484 5.26093C9.05937 5.17765 8.68765 5.19187 8.64296 5.27718C8.59827 5.36453 8.46827 5.95968 8.35249 6.16078C7.89343 5.14515 8.03765 4.34078 8.03765 4.34078C8.03765 4.34078 8.54546 4.33875 8.72624 4.34078C9.04921 4.34484 9.37218 4.35093 9.69515 4.35703C10.2091 4.36718 10.723 4.26765 10.9403 4.86078C11.113 5.33406 10.9972 6.29687 10.8123 6.35578C10.6376 6.41875 10.3614 6.40453 10.1217 6.37406Z" fill="url(#paint7_linear_2_958)"/>
</g>
<defs>
<radialGradient id="paint0_radial_2_958" cx="0" cy="0" r="1" gradientUnits="userSpaceOnUse" gradientTransform="translate(5.22383 15.9519) rotate(-24.6199) scale(24.9115 3.76215)">
<stop offset="0.334" stop-color="#E1F5FE"/>
<stop offset="1" stop-color="#B3E5FC"/>
</radialGradient>
<radialGradient id="paint1_radial_2_958" cx="0" cy="0" r="1" gradientUnits="userSpaceOnUse" gradientTransform="translate(10.7117 18.5064) rotate(-27.5491) scale(32.0749 15.5533)">
<stop offset="0.214" stop-color="white"/>
<stop offset="1" stop-color="#B3E5FC"/>
</radialGradient>
<linearGradient id="paint2_linear_2_958" x1="5.82338" y1="20.2662" x2="22.0519" y2="20.2662" gradientUnits="userSpaceOnUse">
<stop offset="0.171" stop-color="#EF5350"/>
<stop offset="0.62" stop-color="#EA4643"/>
<stop offset="0.985" stop-color="#E53935"/>
</linearGradient>
<linearGradient id="paint3_linear_2_958" x1="12.2464" y1="8.36874" x2="19.3304" y2="8.36874" gradientUnits="userSpaceOnUse">
<stop offset="0.034" stop-color="#ED6D23"/>
<stop offset="0.326" stop-color="#F37F21"/>
<stop offset="0.46" stop-color="#F78C1F"/>
</linearGradient>
<linearGradient id="paint4_linear_2_958" x1="11.4956" y1="7.47926" x2="11.4956" y2="12.9636" gradientUnits="userSpaceOnUse">
<stop offset="0.189" stop-color="#ED6D23"/>
<stop offset="0.569" stop-color="#F37F21"/>
<stop offset="0.796" stop-color="#F78C1F"/>
</linearGradient>
<linearGradient id="paint5_linear_2_958" x1="5.85163" y1="13.0869" x2="8.27491" y2="7.91436" gradientUnits="userSpaceOnUse">
<stop offset="0.189" stop-color="#ED6D23"/>
<stop offset="0.326" stop-color="#F37F21"/>
<stop offset="0.46" stop-color="#F78C1F"/>
<stop offset="1" stop-color="#ED6D23"/>
</linearGradient>
<linearGradient id="paint6_linear_2_958" x1="10.4089" y1="2.03308" x2="12.6764" y2="6.0578" gradientUnits="userSpaceOnUse">
<stop offset="0.176" stop-color="#EF5350"/>
<stop offset="0.623" stop-color="#EA4643"/>
<stop offset="0.985" stop-color="#E53935"/>
</linearGradient>
<linearGradient id="paint7_linear_2_958" x1="7.94893" y1="5.12839" x2="11.0413" y2="5.46079" gradientUnits="userSpaceOnUse">
<stop offset="0.365" stop-color="#90CAF9"/>
<stop offset="0.987" stop-color="#42A5F5"/>
</linearGradient>
<clipPath id="clip0_2_958">
<rect width="26" height="26" fill="white"/>
</clipPath>
</defs>
</svg>
