<?xml version="1.0" encoding="UTF-8" standalone="no"?>
<!DOCTYPE svg PUBLIC "-//W3C//DTD SVG 1.1//EN" "http://www.w3.org/Graphics/SVG/1.1/DTD/svg11.dtd">
<svg width="100%" height="100%" viewBox="0 0 957 308" version="1.1" xmlns="http://www.w3.org/2000/svg" xmlns:xlink="http://www.w3.org/1999/xlink" xml:space="preserve" xmlns:serif="http://www.serif.com/" style="fill-rule:evenodd;clip-rule:evenodd;stroke-linecap:round;stroke-linejoin:round;stroke-miterlimit:1.5;">
    <g transform="matrix(1,0,0,1,-162.816,-246)">
        <g transform="matrix(1,0,0,1,130.671,0)">
            <g id="noto_snowboarder.svg" transform="matrix(11.8462,0,0,11.8462,186.145,400)">
                <g transform="matrix(1,0,0,1,-13,-13)">
                    <g>
                        <path d="M8.803,5.986L8.606,6.665L9.583,6.827L9.179,5.986L8.803,5.986Z" style="fill:rgb(97,97,97);fill-rule:nonzero;"/>
                        <path d="M20.743,10.418C17.995,13.288 16.904,13.985 9.632,17.501C6.008,19.252 2.265,19.374 1.056,20.158C0.969,20.215 0.886,20.272 0.804,20.327L0.804,23.934C0.849,23.942 0.875,23.946 0.875,23.946L10.296,23.946L25.179,18.068L25.179,5.192C24.109,6.61 22.587,8.493 20.743,10.418Z" style="fill:url(#_Radial1);fill-rule:nonzero;"/>
                        <path d="M10.276,23.845L0.892,23.847C0.89,23.847 0.855,23.841 0.804,23.831L0.804,24.036C0.839,24.042 0.867,24.046 0.875,24.048L10.296,24.048C10.309,24.048 10.321,24.046 10.333,24.04L25.179,18.176L25.179,17.958L10.276,23.845Z" style="fill:rgb(179,229,252);fill-rule:nonzero;"/>
                        <path d="M21.588,11.221C15.368,17.321 9.752,17.682 5.948,19.916C3.815,21.17 1.857,22.36 0.804,23.004L0.804,25.151L25.179,25.151L25.179,8.708C23.975,9.35 22.63,10.201 21.588,11.221Z" style="fill:url(#_Radial2);fill-rule:nonzero;"/>
                        <path d="M8.489,25.151L8.645,25.151C9.297,25.131 9.827,24.863 10.156,24.58C10.156,24.58 11.115,23.81 11.861,23.473L18.917,20.522C19.36,20.337 20.111,20.219 20.81,20.067C23.496,19.478 22.752,17.847 22.376,17.298C22.007,16.618 21.019,16.441 20.227,16.721C19.132,17.109 18.161,17.975 17.708,18.166L11.253,20.865C10.361,21.125 9.173,21.125 8.227,21.397C7.079,21.724 6.752,22.35 6.738,23.298C6.723,24.294 7.505,25.11 8.489,25.151Z" style="fill:rgb(179,229,252);fill-rule:nonzero;"/>
                        <path d="M21.651,16.636C21.243,15.89 20.176,15.736 19.382,16.016C18.673,16.268 18.009,16.719 17.524,17.05C17.251,17.237 17.014,17.398 16.859,17.463L10.412,20.158C9.977,20.284 9.478,20.347 8.95,20.414C8.42,20.481 7.871,20.55 7.388,20.69C6.295,21.001 5.842,21.58 5.826,22.687C5.817,23.209 6.017,23.701 6.382,24.072C6.748,24.442 7.235,24.647 7.755,24.647C8.621,24.647 9.202,24.229 9.409,24.05C9.419,24.042 10.366,23.284 11.089,22.957L18.145,20.006C18.464,19.872 18.954,19.774 19.472,19.671C19.654,19.634 19.839,19.598 20.02,19.557C21.072,19.325 21.726,18.911 21.958,18.322C22.244,17.599 21.799,16.853 21.651,16.636Z" style="fill:url(#_Linear3);fill-rule:nonzero;"/>
                        <path d="M17.601,13.431L17.599,13.431C17.595,13.41 17.593,13.388 17.587,13.368C17.539,13.166 17.447,12.979 17.316,12.819C17.186,12.659 17.02,12.53 16.833,12.443L16.835,12.439L13.26,10.843L13.25,10.865C13.244,10.863 13.238,10.859 13.232,10.855C13.055,10.776 12.866,10.739 12.681,10.739C12.161,10.739 11.666,11.04 11.44,11.544C11.408,11.615 11.385,11.688 11.367,11.759C10.926,11.381 10.286,11.089 9.756,11.089C9.569,11.089 9.397,11.125 9.25,11.206C8.519,11.613 8.736,12.988 9.141,13.717C9.145,13.723 9.149,13.731 9.153,13.737L9.151,13.739L10.526,16.22C10.652,16.447 10.678,16.715 10.599,16.961L9.579,20.15L9.776,20.652L12.356,20.631L13.601,16.614C13.618,16.573 13.634,16.532 13.646,16.49C13.658,16.447 13.668,16.404 13.678,16.362L13.685,16.341C13.778,15.888 13.62,15.498 13.388,15.086L12.515,13.514L14.739,14.507C14.842,14.553 14.933,14.622 15.005,14.709C15.077,14.796 15.128,14.899 15.153,15.009L15.872,18.088L18.541,17.465L17.601,13.431Z" style="fill:rgb(124,124,124);fill-rule:nonzero;"/>
                        <path d="M19.076,7.816C19.067,7.802 19.055,7.791 19.041,7.783C19.027,7.774 19.011,7.77 18.994,7.77L16.427,7.644C16.171,7.542 13.461,6.486 12.97,6.47C12.915,6.461 12.88,6.498 12.868,6.545L12.248,8.805C12.236,8.854 12.259,8.905 12.305,8.925C12.407,8.972 14.826,10.049 15.665,10.231C15.785,10.258 15.931,10.27 16.096,10.27C17.117,10.27 18.793,9.821 18.874,9.799C18.893,9.795 18.909,9.785 18.923,9.77C19.736,8.893 19.084,7.828 19.076,7.816Z" style="fill:url(#_Linear4);fill-rule:nonzero;"/>
                        <path d="M14.003,8.722C13.922,8.251 13.841,7.765 13.788,7.292C13.772,6.855 13.607,6.506 13.311,6.283C13.028,6.069 12.643,5.97 12.163,5.988L10.357,6.055C9.518,6.061 8.673,6.849 8.706,7.747L8.728,11.556C8.757,12.293 8.968,12.817 9.358,13.118C9.6,13.305 9.906,13.396 10.276,13.396C10.469,13.396 10.68,13.37 10.906,13.319C13.063,12.827 14.263,12.155 14.284,11.426C14.308,10.5 14.154,9.596 14.003,8.722Z" style="fill:url(#_Linear5);fill-rule:nonzero;"/>
                        <path d="M20.201,7.845C20.189,7.841 18.856,7.426 18.367,8.515C18.365,8.521 18.36,8.529 18.36,8.535L18.35,8.582C18.216,9.177 18.584,9.531 18.822,9.644C19.053,9.756 19.63,9.738 19.746,9.732C19.833,9.752 19.918,9.776 19.998,9.799C20.154,9.843 20.315,9.888 20.463,9.888C20.672,9.888 20.863,9.799 20.995,9.488L21.001,9.47L21.011,9.423C21.141,8.85 20.906,8.125 20.201,7.845ZM6.868,12.657L6.695,12.488C6.293,12.086 5.332,12.61 5.129,12.728C4.871,12.72 4.41,12.833 4.294,13.319C4.207,13.685 4.276,14.006 4.489,14.245C4.721,14.503 5.109,14.651 5.535,14.651C5.61,14.651 5.685,14.647 5.763,14.637C7.081,14.473 6.951,13.244 6.896,12.718C6.894,12.695 6.884,12.673 6.868,12.657Z" style="fill:rgb(38,166,154);fill-rule:nonzero;"/>
                        <path d="M10.485,8.275C10.485,8.243 10.485,8.212 10.483,8.18C10.439,7.609 10.022,7.128 9.458,7.034C9.267,7.002 9.084,7.016 8.913,7.061C8.897,7.061 8.879,7.057 8.86,7.057C8.7,7.057 8.545,7.089 8.411,7.162C7.254,7.593 5.204,8.381 5.072,9.525C4.962,10.489 5.04,12.896 5.04,12.896C5.348,13.13 5.657,13.209 5.935,13.209C6.526,13.209 6.975,12.852 6.975,12.852L7.018,12.663L7.02,12.661C7.02,12.661 7.024,12.645 7.028,12.618L7.581,10.187C7.581,10.187 9.238,9.614 9.683,9.455C10.053,9.319 10.528,8.799 10.485,8.275Z" style="fill:url(#_Linear6);fill-rule:nonzero;"/>
                        <path d="M14.156,2.07C13.512,1.398 12.472,0.928 11.422,0.928C11.133,0.928 10.843,0.963 10.563,1.04C9.078,1.444 8.661,2.159 8.501,2.513C8.422,2.685 8.391,2.884 8.275,3.029C8.119,3.224 7.851,3.36 7.682,3.561C7.617,3.638 7.554,3.74 7.595,3.831C7.631,3.914 7.735,3.939 7.826,3.953C8.844,4.099 11.619,3.884 12.123,4.288C12.401,4.511 12.248,5.706 12.257,6.12C12.265,6.506 12.277,6.459 12.624,6.628C12.74,6.683 12.844,6.709 12.937,6.709C13.388,6.709 13.632,6.145 13.981,5.714C14.798,4.706 15.316,3.27 14.156,2.07Z" style="fill:url(#_Linear7);fill-rule:nonzero;"/>
                        <path d="M12.504,19.679L9.801,20.046C9.657,20.069 9.551,20.193 9.551,20.339L9.551,20.694C9.551,20.93 9.693,21.141 9.913,21.229C10.286,21.377 10.869,21.594 11.265,21.68C11.403,21.71 11.54,21.722 11.674,21.722C12.265,21.722 12.803,21.476 13.041,21.348C13.122,21.304 13.179,21.225 13.189,21.133C13.264,20.443 13.197,19.772 12.504,19.679ZM18.367,17.087L15.73,17.524L15.769,18.281C15.779,18.476 15.925,18.635 16.118,18.659C16.646,18.722 17.666,18.84 18.129,18.864C18.184,18.866 18.239,18.868 18.291,18.868C18.98,18.868 19.443,18.645 19.644,18.521C19.723,18.472 19.77,18.385 19.768,18.291C19.754,17.633 19.055,17.18 18.367,17.087Z" style="fill:rgb(69,104,173);fill-rule:nonzero;"/>
                        <path d="M12.397,4.747L12.2,4.329C12.118,4.065 11.064,4.06 11.064,4.06L11.176,6.504L11.186,6.709L11.194,6.908C11.194,6.908 11.964,6.782 12.269,6.614C12.309,6.589 12.342,6.567 12.362,6.543L12.399,6.378L12.533,5.781L14.077,5.448C14.119,5.403 14.162,5.356 14.211,5.308C14.235,5.279 14.263,5.251 14.292,5.222C14.454,5.058 14.556,4.922 14.635,4.798C14.66,4.761 14.682,4.727 14.702,4.692L12.397,4.747Z" style="fill:rgb(97,97,97);fill-rule:nonzero;"/>
                        <path d="M16.146,5.43C14.938,6.165 15.094,6.691 13.991,7.638C13.006,8.483 11.889,8.899 10.416,8.269C8.009,7.237 8.367,6.061 8.367,6.061C8.367,6.061 8.946,6.849 11.31,6.744C12.99,6.669 13.36,6.165 14.044,5.482C14.729,4.8 14.255,4.327 15.726,3.589C17.199,2.854 18.775,3.063 18.775,3.063L20.719,4.692C20.719,4.692 17.355,4.692 16.146,5.43Z" style="fill:rgb(3,155,229);fill-rule:nonzero;"/>
                        <path d="M21.623,15.224C21.625,15.222 21.627,15.222 21.629,15.218C21.879,14.999 21.708,14.568 21.363,14.623C21.353,14.623 21.344,14.625 21.336,14.627C21.137,14.676 21.005,14.846 20.948,15.035C20.92,15.133 20.895,15.23 20.875,15.33C20.865,15.379 20.853,15.429 20.849,15.478C20.847,15.507 20.861,15.557 20.893,15.564C20.94,15.574 21.026,15.535 21.07,15.519C21.267,15.456 21.462,15.364 21.623,15.224ZM24.064,12.805C24.066,12.803 24.066,12.801 24.07,12.799C24.294,12.551 24.722,12.728 24.661,13.073C24.661,13.081 24.657,13.091 24.655,13.1C24.605,13.299 24.432,13.429 24.241,13.484C24.143,13.512 24.044,13.534 23.944,13.553C23.896,13.563 23.845,13.573 23.796,13.577C23.768,13.579 23.717,13.563 23.711,13.53C23.701,13.484 23.741,13.398 23.758,13.355C23.829,13.159 23.922,12.964 24.064,12.805ZM20.414,12.653C20.416,12.651 20.416,12.649 20.416,12.645C20.554,12.301 20.168,11.958 19.853,12.188L19.829,12.206C19.656,12.352 19.608,12.59 19.646,12.807C19.667,12.919 19.691,13.028 19.721,13.136C19.738,13.189 19.75,13.246 19.77,13.297C19.782,13.325 19.823,13.368 19.858,13.36C19.91,13.347 19.973,13.266 20.01,13.227C20.178,13.061 20.327,12.872 20.414,12.653ZM23.126,10.766C23.128,10.764 23.128,10.762 23.13,10.759C23.353,10.524 23.15,10.122 22.819,10.205C22.811,10.207 22.801,10.209 22.793,10.213C22.604,10.276 22.49,10.455 22.451,10.642C22.431,10.739 22.417,10.837 22.405,10.934C22.401,10.983 22.392,11.032 22.392,11.081C22.392,11.107 22.413,11.156 22.443,11.16C22.49,11.166 22.567,11.121 22.61,11.103C22.801,11.02 22.984,10.914 23.126,10.766ZM22.87,12.62L22.876,12.614C23.154,12.314 22.89,11.81 22.476,11.921C22.466,11.924 22.453,11.928 22.443,11.932C22.208,12.015 22.066,12.242 22.021,12.48C21.998,12.602 21.98,12.726 21.97,12.85C21.964,12.911 21.956,12.974 21.956,13.035C21.958,13.067 21.982,13.128 22.021,13.132C22.08,13.14 22.179,13.081 22.23,13.057C22.466,12.947 22.693,12.811 22.87,12.62Z" style="fill:white;fill-rule:nonzero;"/>
                        <path d="M9.317,6.681C9.262,6.587 9.185,6.459 9.09,6.295L8.818,6.275C8.787,6.39 8.649,6.77 8.545,6.829C8.48,6.866 8.342,6.681 8.243,6.528C8.168,6.411 8.153,6.266 8.204,6.134C8.227,6.075 8.251,6.015 8.267,5.974C8.312,5.856 8.379,5.75 8.42,5.633C8.462,5.509 8.387,5.371 8.352,5.247C8.312,5.109 8.271,4.973 8.229,4.832C8.218,4.796 8.101,4.312 8.074,4.312C8.074,4.312 7.965,4.31 7.948,4.176C7.938,4.095 7.934,3.949 8.164,3.947L10.63,4.006C10.959,4.014 11.31,4.02 11.58,4.503C11.785,4.873 11.694,6.325 11.596,6.516C11.55,6.61 11.483,6.801 11.194,6.904C10.979,6.979 10.118,6.933 9.689,6.902C9.535,6.898 9.399,6.815 9.317,6.681Z" style="fill:rgb(227,242,253);fill-rule:nonzero;"/>
                        <path d="M10.122,6.374C9.978,6.356 9.841,6.301 9.726,6.214C9.61,6.127 9.519,6.011 9.462,5.878C9.346,5.612 9.208,5.306 9.155,5.261C9.059,5.178 8.688,5.192 8.643,5.277C8.598,5.365 8.468,5.96 8.352,6.161C7.893,5.145 8.038,4.341 8.038,4.341C8.038,4.341 8.545,4.339 8.726,4.341C9.049,4.345 9.372,4.351 9.695,4.357C10.209,4.367 10.723,4.268 10.94,4.861C11.113,5.334 10.997,6.297 10.812,6.356C10.638,6.419 10.361,6.405 10.122,6.374Z" style="fill:url(#_Linear8);fill-rule:nonzero;"/>
                    </g>
                </g>
            </g>
            <g transform="matrix(1,0,0,1,0.096,58.096)">
                <g transform="matrix(1,0,0,1,0,13.328)">
                    <g transform="matrix(96,0,0,96,989.681,386)">
                    </g>
                    <text x="340.145px" y="386px" style="font-family:'Poppins-Bold', 'Poppins';font-weight:700;font-size:96px;">SNOWBOARD</text>
                </g>
                <g transform="matrix(1,0,0,1,-0.096,-0.096)">
                    <path d="M344.273,408.664L986.513,408.664" style="fill:none;stroke:black;stroke-width:4px;"/>
                </g>
                <g transform="matrix(1.04268,0,0,1,-14.6702,99.488)">
                    <g transform="matrix(96,0,0,96,965.969,386)">
                    </g>
                    <text x="340.145px" y="386px" style="font-family:'Poppins-Regular', 'Poppins';font-size:96px;">G<tspan x="501.233px 652.433px 762.449px 916.721px " y="386px 386px 386px 386px ">UIDE</tspan></text>
                </g>
            </g>
            <g transform="matrix(1,0,0,1,-1.13814,32.5612)">
                <g transform="matrix(30,0,0,30,398.422,348)">
                </g>
                <text x="344.392px" y="348px" style="font-family:'Poppins-Regular', 'Poppins';font-size:30px;">The</text>
            </g>
        </g>
    </g>
    <defs>
        <radialGradient id="_Radial1" cx="0" cy="0" r="1" gradientUnits="userSpaceOnUse" gradientTransform="matrix(22.6468,-10.378,1.5673,3.42014,5.22383,15.9519)"><stop offset="0" style="stop-color:rgb(225,245,254);stop-opacity:1"/><stop offset="0.33" style="stop-color:rgb(225,245,254);stop-opacity:1"/><stop offset="1" style="stop-color:rgb(179,229,252);stop-opacity:1"/></radialGradient>
        <radialGradient id="_Radial2" cx="0" cy="0" r="1" gradientUnits="userSpaceOnUse" gradientTransform="matrix(28.4381,-14.8349,7.19353,13.7898,10.7117,18.5064)"><stop offset="0" style="stop-color:white;stop-opacity:1"/><stop offset="0.21" style="stop-color:white;stop-opacity:1"/><stop offset="1" style="stop-color:rgb(179,229,252);stop-opacity:1"/></radialGradient>
        <linearGradient id="_Linear3" x1="0" y1="0" x2="1" y2="0" gradientUnits="userSpaceOnUse" gradientTransform="matrix(16.2285,0,0,16.2285,5.82338,20.2662)"><stop offset="0" style="stop-color:rgb(239,83,80);stop-opacity:1"/><stop offset="0.17" style="stop-color:rgb(239,83,80);stop-opacity:1"/><stop offset="0.62" style="stop-color:rgb(234,70,67);stop-opacity:1"/><stop offset="0.99" style="stop-color:rgb(229,57,53);stop-opacity:1"/><stop offset="1" style="stop-color:rgb(229,57,53);stop-opacity:1"/></linearGradient>
        <linearGradient id="_Linear4" x1="0" y1="0" x2="1" y2="0" gradientUnits="userSpaceOnUse" gradientTransform="matrix(7.084,0,0,7.084,12.2464,8.36874)"><stop offset="0" style="stop-color:rgb(237,109,35);stop-opacity:1"/><stop offset="0.03" style="stop-color:rgb(237,109,35);stop-opacity:1"/><stop offset="0.33" style="stop-color:rgb(243,127,33);stop-opacity:1"/><stop offset="0.46" style="stop-color:rgb(247,140,31);stop-opacity:1"/><stop offset="1" style="stop-color:rgb(247,140,31);stop-opacity:1"/></linearGradient>
        <linearGradient id="_Linear5" x1="0" y1="0" x2="1" y2="0" gradientUnits="userSpaceOnUse" gradientTransform="matrix(3.35819e-16,5.48434,-5.48434,3.35819e-16,11.4956,7.47926)"><stop offset="0" style="stop-color:rgb(237,109,35);stop-opacity:1"/><stop offset="0.19" style="stop-color:rgb(237,109,35);stop-opacity:1"/><stop offset="0.57" style="stop-color:rgb(243,127,33);stop-opacity:1"/><stop offset="0.8" style="stop-color:rgb(247,140,31);stop-opacity:1"/><stop offset="1" style="stop-color:rgb(247,140,31);stop-opacity:1"/></linearGradient>
        <linearGradient id="_Linear6" x1="0" y1="0" x2="1" y2="0" gradientUnits="userSpaceOnUse" gradientTransform="matrix(2.42328,-5.17254,5.17254,2.42328,5.85163,13.0869)"><stop offset="0" style="stop-color:rgb(237,109,35);stop-opacity:1"/><stop offset="0.19" style="stop-color:rgb(237,109,35);stop-opacity:1"/><stop offset="0.33" style="stop-color:rgb(243,127,33);stop-opacity:1"/><stop offset="0.46" style="stop-color:rgb(247,140,31);stop-opacity:1"/><stop offset="1" style="stop-color:rgb(237,109,35);stop-opacity:1"/></linearGradient>
        <linearGradient id="_Linear7" x1="0" y1="0" x2="1" y2="0" gradientUnits="userSpaceOnUse" gradientTransform="matrix(2.2675,4.02472,-4.02472,2.2675,10.4089,2.03308)"><stop offset="0" style="stop-color:rgb(239,83,80);stop-opacity:1"/><stop offset="0.18" style="stop-color:rgb(239,83,80);stop-opacity:1"/><stop offset="0.62" style="stop-color:rgb(234,70,67);stop-opacity:1"/><stop offset="0.99" style="stop-color:rgb(229,57,53);stop-opacity:1"/><stop offset="1" style="stop-color:rgb(229,57,53);stop-opacity:1"/></linearGradient>
        <linearGradient id="_Linear8" x1="0" y1="0" x2="1" y2="0" gradientUnits="userSpaceOnUse" gradientTransform="matrix(3.09237,0.3324,-0.3324,3.09237,7.94893,5.12839)"><stop offset="0" style="stop-color:rgb(144,202,249);stop-opacity:1"/><stop offset="0.37" style="stop-color:rgb(144,202,249);stop-opacity:1"/><stop offset="0.99" style="stop-color:rgb(66,165,245);stop-opacity:1"/><stop offset="1" style="stop-color:rgb(66,165,245);stop-opacity:1"/></linearGradient>
    </defs>
</svg>
